<svg
  xmlns="http://www.w3.org/2000/svg"
  xmlns:xlink="http://www.w3.org/1999/xlink"
  width="100"
  height="100"
  viewBox="0 0 100 100"
>
  <!-- Dossier -->
  <path
    d="M80 24.2H44.6L40 20 20 20C18.9 20 18 20.9 18 22v52c0 1.1.9 2 2 2h60c1.1 0 2-.9 2-2V26.2c0-1.1-.9-2-2-2zm-4 18H48c-1.1 0-2-.9-2-2s.9-2 2-2h28c1.1 0 2 .9 2 2s-.9 2-2 2zM80 58H20V24h19.4L40 32.2 44.6 36H80v22z"
    fill="#3E96FF"
  />
  <!-- Document -->
  <path
    d="M56.1 50.1H43.9c-.6 0-1-.4-1-1s.4-1 1-1h12.2c.6 0 1 .4 1 1s-.4 1-1 1zM56.1 54.9H43.9c-.6 0-1-.4-1-1s.4-1 1-1h12.2c.6 0 1 .4 1 1s-.4 1-1 1zM56.1 59.7H43.9c-.6 0-1-.4-1-1s.4-1 1-1h12.2c.6 0 1 .4 1 1s-.4 1-1 1zM56.1 64.5H43.9c-.6 0-1-.4-1-1s.4-1 1-1h12.2c.6 0 1 .4 1 1s-.4 1-1 1zM56.1 69.3H43.9c-.6 0-1-.4-1-1s.4-1 1-1h12.2c.6 0 1 .4 1 1s-.4 1-1 1z"
    fill="#FFAB44"
  />
</svg>
